<svg xmlns="http://www.w3.org/2000/svg" viewBox="127.90799999999999 163.02 1005.7080000000001 885.324"><path fill="#fdfdfd" d="m0 0h1254v1254c-413.82 0-827.64 0-1254 0 0-413.82 0-827.64 0-1254z"/><path transform="translate(645.15625 640.609375)" fill="#7c5eab" d="m0 0c.6647937.16808167 1.3295874.33616333 2.01452637.50933838 2.11180839.53601173 4.22044559 1.08348911 6.32922363 1.63128662 1.38262322.35230615 2.76543482.70387388 4.1484375 1.0546875 12.5430345 3.19292559 25.05696383 6.48687659 37.4765625 10.1328125 7.06477077 2.04787206 14.14762255 3.899393 21.3125 5.5625 13.07961061 3.03811979 25.99293119 6.63591666 38.91015625 10.296875 9.83933743 2.78470412 19.65359274 5.52922876 29.62768555 7.79003906 5.67727287 1.2972689 11.27122713 2.83214309 16.87402343 4.41748047 6.19623675 1.74763953 12.41772198 3.38407927 18.65063477 4.99560547 7.31897794 1.89521501 14.61564802 3.84703411 21.89208984 5.89892578 5.13413458 1.43737899 10.28319738 2.81370381 15.43994141 4.16748047.70674362.18559479 1.41348724.37118958 2.14164734.56240845 1.46869808.38559264 2.93740241.77116149 4.40611267 1.15670776 1.11137833.29179138 1.11137833.29179138 2.24520874.58947754.74406097.19533325 1.48812195.3906665 2.25473022.59191895 9.12432404 2.39928469 18.20655273 4.8880445 27.24526978 7.59558105 10.71971995 3.20509552 21.54705965 5.91138141 32.4074707 8.58691406 8.56882977 2.11259804 17.09272567 4.3286737 25.58081055 6.74511719 4.95111499 1.40820658 9.92061299 2.75107627 14.88671875 4.10546875v151c-32.45051996 2.31789428-32.45051996 2.31789428-43.8671875 3.0703125-1.30011017.08595428-2.60022034.17190857-3.93972778.26046753-2.67923325.17693085-5.35850801.35321631-8.03781128.52908325-3.41779113.22447555-6.83540448.45155607-10.25298882.67915535-3.31887718.22049585-6.63793516.43821641-9.95697212.65629387-1.82324295.12183151-1.82324295.12183151-3.68331909.24612427-1.13043732.07362762-2.26087464.14725525-3.42556763.22311401-.98588104.06502716-1.97176208.13005432-2.98751831.197052-2.94652182.14313923-5.89891091.13839722-8.84890747.13839722 0-30.03 0-60.06 0-91-7.92-.99-7.92-.99-16-2-.66-.33-1.32-.66-2-1-1.86116892-.33601901-3.73002577-.62993086-5.6015625-.90234375-1.13050781-.16822266-2.26101563-.33644531-3.42578125-.50976563-2.37493091-.34682758-4.74992963-.69319123-7.125-1.0390625-9.79561269-1.45880302-9.79561269-1.45880302-13.83984375-2.55273437-5.73021733-1.54089243-11.64051995-2.17888652-17.5078125-2.99609375-13.20184292-1.83877682-13.20184292-1.83877682-17.8828125-3.05859375-3.66477415-.95379111-7.23893883-1.51948478-10.9921875-2.00390625-6.41112717-.83056358-6.41112717-.83056358-8.625-1.9375v116c-11.88.66-23.76 1.32-36 2-2.31.33-4.62.66-7 1-1.72311288.11229944-3.44847952.1951786-5.17456055.24389648-.96170608.03118424-1.92341217.06236847-2.91426086.09449769-1.02643112.03141586-2.05286224.06283172-3.11039734.09519958-9.18733767.3244754-18.34179335.83538179-27.5078125 1.5390625-1.15563446.08792816-2.31126892.17585632-3.50192261.26644897-4.70937256.3613568-9.41824925.72802229-14.12625122 1.10684205-23.94530082 1.91250026-47.58175575 2.3293951-71.52807617.28686523-10.4729513-.84621769-20.96098663-1.44818261-31.44921875-2.0703125-1.07321503-.06404022-2.14643005-.12808044-3.25216675-.19406128-11.96386141-.71293545-23.92879335-1.40253062-35.89627075-2.05203247-1.5532045-.08439079-1.5532045-.08439079-3.13778687-.17048645-1.04523834-.05677414-2.09047668-.11354828-3.16738891-.17204285-2.14046261-.11628551-4.28092485-.23257789-6.42138672-.34887695-1.06780701-.05789703-2.13561401-.11579407-3.23577881-.17544556-15.25447411-.83103091-30.50240424-1.7455942-45.74859619-2.71517944-.87566935-.05566257-1.75133869-.11132515-2.65354347-.16867447-8.76676007-.55782249-17.53322755-1.12001348-26.29923153-1.68959618-4.08204687-.26496542-8.16420922-.52810948-12.24644375-.79016685-.78668753-.05056423-1.57337505-.10112846-2.3839016-.15322495-10.05828845-.64335789-20.11160814-1.17499095-30.18355751-1.55995559-6.74691147-.2741722-13.464384-.75943971-20.19425964-1.30635071-10.5922637-.85894069-21.18650398-1.52117406-31.796875-2.1015625-1.15810558-.06360277-1.15810558-.06360277-2.33960724-.12849045-6.3526199-.34822321-12.705567-.69030377-19.05864715-1.03001785-4.80020569-.25671012-9.60022812-.51641788-14.40002823-.78060722-2.22007351-.12097894-4.44035278-.23748602-6.66067124-.35386849-1.35077216-.07405295-2.70153179-.14833514-4.05227661-.22288513-1.1740036-.06280655-2.3480072-.1256131-3.55758667-.19032288-3.00149536-.25865173-3.00149536-.25865173-7.00149536-1.25865173 0-59.4 0-118.8 0-180l18-3c3.41486375-.74672532 3.41486375-.74672532 6.82180786-1.52828979 5.0358578-1.09056749 10.14787383-1.80440075 15.23678589-2.60061646 2.51367391-.3990757 5.02734573-.79816462 7.54101563-1.19726563 3.27595954-.51721354 6.55200457-1.03387668 9.82818603-1.54968261 4.48167871-.70573072 8.96257381-1.41629174 13.44329834-2.12805176 1.18637558-.18542862 2.37275116-.37085724 3.59507751-.56190491 1.09196183-.17365585 2.18392365-.3473117 3.30897522-.52622986.96324692-.15163101 1.92649384-.30326202 2.91893006-.45948791 2.32155948-.34452506 2.32155948-.34452506 4.30592346-1.44847107 3.23218593-.44008024 6.4642223-.81227539 9.70703125-1.16210938 4.13088587-.47664067 8.03009593-1.23705575 12.06054687-2.3005371 4.6718107-1.12452487 9.43006817-1.82509807 14.16992188-2.59985352 1.03318359-.17337891 2.06636719-.34675781 3.13085938-.52539062 5.19457061-.85863391 10.35688882-1.6343771 15.60571289-2.06616211 2.78880576-.41479351 5.47591645-1.13041255 8.20436096-1.83122254 3.31721607-.80480764 6.67317885-1.3652006 10.03953552-1.91706848.73158829-.12232498 1.46317657-.24464996 2.2169342-.37068176 2.35029958-.39166216 4.70139673-.77825979 7.05259705-1.16447449 1.62272846-.26916291 3.24544978-.53836886 4.86816406-.80761719 9.51547663-1.57092598 19.03614447-3.07625649 28.60131836-4.31713867 4.22642856-.56219954 8.25180575-1.39027059 12.3737793-2.47387695 3.27882402-.77234883 6.55783575-1.09505983 9.90673828-1.46386719 4.17820087-.46104285 8.19705282-.99041312 12.28808594-1.94970703 4.40006283-.9941962 8.8031349-1.74834249 13.26269531-2.41748047 1.5996323-.24618901 3.19924083-.49253246 4.79882813-.73901367.82137451-.12555268 1.64274902-.25110535 2.48901367-.38046265 11.87735472-1.81850201 23.71426287-3.66919449 35.46826172-6.18032837 7.03377931-1.47097496 14.12133814-2.42049731 21.25170898-3.29467773 4.61158076-.57774008 9.02582142-1.34299108 13.51611328-2.53881836 3.64466247-.91586581 7.34528067-1.50858092 11.05029297-2.12451172.76376953-.1340625 1.52753906-.268125 2.31445312-.40625.75345704-.12632812 1.50691407-.25265625 2.28320313-.3828125.66652588-.1129541 1.33305176-.2259082 2.01977539-.34228516 5.81123124-.61029241 10.82946216-.08137836 16.47631836 1.36572266z"/><path transform="translate(575.1875 454.6875)" fill="#eb5c24" d="m0 0c1.19882812.35707031 2.39765625.71414063 3.6328125 1.08203125.66032227.19674316 1.32064453.39348633 2.00097656.59619141 4.22994067 1.23144171 8.4881174 2.36095694 12.74121094 3.50927734 13.57776853 3.68865037 27.12463246 7.46623765 40.56518555 11.63012695 9.61295257 2.97601443 19.26144772 5.69870793 28.99731445 8.24487305 12.047031 3.15604067 24.00162858 6.57284166 35.9375 10.125.81253235.2410144 1.6250647.48202881 2.46221924.73034668 2.31694092.68827484 4.63268638 1.3804036 6.94793701 2.07434082 1.03241066.30733566 1.03241066.30733566 2.0856781.62088013 3.56025006 1.07441786 6.99979002 2.2956989 10.44166565 3.69943237 2.17962293.57254074 4.36865097 1.10965017 6.5625 1.625 8.10021877 1.95859871 16.11158464 4.21486223 24.125 6.5 1.84476929.52327881 1.84476929.52327881 3.72680664 1.05712891 1.166521.33435058 2.33304199.66870117 3.53491211 1.01318359 1.04502686.29922363 2.09005371.59844727 3.16674805.90673828 2.8840332.89794922 2.8840332.89794922 5.50756836 1.95263672 2.17175471.8638827 4.16460509 1.42194333 6.45068359 1.875.74459473.15339844 1.48918945.30679688 2.25634766.46484375.77778808.15855469 1.55557617.31710937 2.35693359.48046875 5.85341619 1.24089158 11.2050683 2.69645566 16.69140625 5.12109375 4.15729549 1.59228754 8.47650724 2.53865239 12.7980957 3.57202148 4.27571617 1.02745049 8.41437426 2.2069004 12.55610657 3.67532349 2.38515295.79603033 4.77958176 1.46337371 7.20903015 2.11154175 6.41085967 1.73117065 12.79066574 3.56330599 19.17114258 5.40283203 2.4888872.71500072 4.97782086 1.42983975 7.46679687 2.14453125 3.88243059 1.11524902 7.7645367 2.23160235 11.64575196 3.35107422 3.77395154 1.0884017 7.54942786 2.17145725 11.32495117 3.25439453 1.15945633.33540802 2.31891266.67081604 3.51350403 1.01638794 1.62780647.46586014 1.62780647.46586014 3.28849792.94113159.94833206.27296906 1.89666413.54593811 2.87373352.82717896 2.88691746.73642498 5.83465602 1.21768447 8.77348328 1.70748901v148c-23.80331919-5.66745695-23.80331919-5.66745695-35.0625-9-10.49243128-3.05144691-21.01274634-5.83868645-31.62695312-8.42773438-4.66272447-1.15484215-9.30310774-2.39491836-13.94628907-3.62548828-4.38933985-1.16305721-8.78084925-2.31657009-13.17675781-3.45458984-17.00286272-4.40352938-17.00286272-4.40352938-24.1875-6.4921875-13.3390427-3.87314372-26.83029562-7.22830511-40.3125-10.5625-6.0096495-1.48630778-11.98311387-3.05633279-17.9375-4.75-9.92814706-2.81890511-19.94924212-5.27227955-29.96777344-7.74536133-8.95602883-2.21383045-17.87272475-4.54659889-26.78222656-6.94213867-4.12045307-1.10162868-8.24530814-2.18357101-12.375-3.25-1.00160156-.268125-2.00320313-.53625-3.03515625-.8125-11.45195163-2.9340948-20.82687124-1.51465361-32.28649902.63916016-3.76211344.69145208-7.53613286 1.30701767-11.31115723 1.92333984-1.51693981.24992275-3.03386686.49992301-4.55078125.75-2.28742091.3760949-4.5749636.75139741-6.86279297 1.125-7.652308 1.25121834-15.28269804 2.53354322-22.87939453 4.09375-8.62662434 1.76062915-17.30304313 3.17939425-25.99389648 4.58349609-2.74035357.44331027-5.47969765.89249489-8.21899415 1.34228516-1.8196036.29592888-3.63926343.59151226-5.45898437.88671875-.77996841.12822144-1.55993683.25644287-2.36354065.3885498-10.1977228 1.637989-20.42243889 2.93365054-30.6638031 4.3302002 0-27.06 0-54.12 0-82-6.6 1.98-13.2 3.96-20 6-4.87066431 1.33905725-9.73888277 2.65940977-14.625 3.9375-1.91293724.50438127-3.82587216 1.00877162-5.7386322 1.51382446-1.93187667.51006455-3.86395558 1.01936291-5.79603577 1.52865601-3.81689708 1.01379504-7.62818604 2.04630971-11.43798828 3.08642578-1.79219971.48835327-1.79219971.48835327-3.62060547.98657227-2.26672207.61876248-4.53270836 1.24022846-6.79785156 1.86474609-1.51376221.41197632-1.51376221.41197632-3.05810547.83227539-.88260498.24234375-1.76520996.4846875-2.67456055.734375-2.2512207.515625-2.2512207.515625-5.2512207.515625v75c-9.37290257 1.75741923-18.70920059 3.49424616-28.11914062 4.9921875-3.06144398.49718066-5.93245613 1.02501142-8.88085938 2.0078125-2.64 0-5.28 0-8 0 0-51.48 0-102.96 0-156 6.65433266-2.41975733 13.2792228-4.79416337 20-7 1.57797831-.52575482 3.15565052-1.05242908 4.73304749-1.57992554.82225067-.27456527 1.64450134-.54913055 2.4916687-.83201599.86822891-.28993332 1.73645782-.57986664 2.6309967-.87858581 9.59238286-3.20291778 19.18527926-6.40429456 28.77846623-9.60480309 5.78553752-1.93024959 11.57088705-3.86105872 17.35581111-5.79314613 5.62502055-1.87865624 11.25054332-3.75580152 16.87640191-5.63194657 2.12771829-.7098494 4.25526225-1.42022158 6.38261795-2.13115692 10.804173-3.61025277 21.61333444-7.1826979 32.4995861-10.53842544 4.67129765-1.45106091 9.30568916-3.00494107 13.93890381-4.57249451 6.63786115-2.23017295 13.28309982-4.3951066 19.99609375-6.390625 2.6269279-.82923048 5.20146574-1.71609527 7.7890625-2.65625.78995361-.28093506 1.57990723-.56187012 2.39379883-.85131836 1.54057105-.55055335 3.07609463-1.11553724 4.60498047-1.69775391 7.63587343-2.70113114 14.08636497-1.49330082 21.71606445.84594727z"/><path transform="translate(595.308594 303.453125)" fill="#acaf34" d="m0 0c.82314697.28705811 1.64629395.57411621 2.49438477.86987305.86939209.30591064 1.73878418.61182129 2.63452148.92700195 1.34372681.47143433 1.34372681.47143433 2.71459961.95239258 6.0342491 2.12861786 12.01754687 4.35376216 17.97680664 6.68432617 2.77764806 1.07704721 5.56822356 2.10392628 8.37109375 3.11328125 5.01413736 1.80885186 9.98617149 3.71642122 14.95703125 5.640625 2.55605223.98071243 5.11447232 1.9501513 7.6796875 2.90625.70423096.26248535 1.40846191.5249707 2.1340332.79541016 1.36127134.5063506 2.72305515 1.01132651 4.08544922 1.51464843 3.11791327 1.16013531 6.1871239 2.37785835 9.24145508 3.69775391 4.07588243 1.73143111 8.21795072 3.05207422 12.4375 4.3828125 2.96484375 1.0625 2.96484375 1.0625 5.84375 2.51171875 3.57063649 1.77414604 7.23042743 3.08114913 10.99609375 4.36328125 1.5238679.52870903 3.04729632 1.05868623 4.5703125 1.58984375.76473633.2666748 1.52947266.53334961 2.31738281.80810547 8.8213637 3.11308274 17.53990493 6.5218424 26.2788086 9.85717773 14.71051868 5.63074836 14.71051868 5.63074836 29.59375 10.78125 5.45250307 1.78427309 10.73171902 3.68233153 15.93115234 6.11987305 4.38953304 1.86009105 8.95405934 3.23843211 13.4921875 4.6875 4.7105767 1.60598452 9.32054658 3.49540613 13.94140625 5.34375v125c-8.99973435-1.12496679-8.99973435-1.12496679-12.70581055-2.21166992-.83254806-.2408281-1.66509613-.48165619-2.52287292-.72978211-.87715164-.26037552-1.75430329-.52075103-2.65803528-.78901672-.9376973-.27290359-1.87539459-.54580719-2.84150696-.82698059-2.98813176-.87096248-5.97373637-1.75024277-8.95927429-2.63005066-1.95360791-.57153854-3.90738283-1.14250656-5.86132813-1.71289062-2.92399186-.85371613-5.84781107-1.70798591-8.77090454-2.56477356-6.52258417-1.9109982-13.05326815-3.79152541-19.59042358-5.65202332-8.27342389-2.35540605-16.52922273-4.76548602-24.77688599-7.2093811-11.95543864-3.54052466-23.92786224-7.00444402-35.94332885-10.33676148-6.4367296-1.78667556-12.84662728-3.6472568-19.24682618-5.56005859-6.10962747-1.8086776-12.26676592-3.42360157-18.44262695-4.98999024-3.70972286-.9522672-7.34985286-1.98455257-10.97314453-3.22802734-5.5972392-1.90735105-11.30263609-3.369794-17.01953125-4.87109375-8.18369127-2.17440793-16.33406524-4.41766075-24.4375-6.875-.80840332-.24274658-1.61680664-.48549316-2.44970703-.7355957-3.62493431-1.09301455-7.23503402-2.21378151-10.82763672-3.40893555-1.20785156-.38542969-2.41570312-.77085937-3.66015625-1.16796875-1.01449219-.3403125-2.02898437-.680625-3.07421875-1.03125-7.47971511-1.08270906-15.382002 2.4128571-22.4375 4.69921875-.9735141.31201859-1.9470282.62403717-2.95004272.94551086-3.18070355 1.02070587-6.35948175 2.04726949-9.53823853 3.07402039-2.21207381.71120003-4.42423318 1.42213401-6.63647461 2.1328125-17.60706826 5.66280677-35.19309529 11.39090398-52.76660156 17.15698242-.93276764.30552292-1.86553528.61104584-2.82656861.92582703-1.74477804.5715844-3.48916396 1.14436762-5.23309326 1.71853638-5.73736825 1.87834167-5.73736825 1.87834167-6.84976196 1.87834167 0-35.97 0-71.94 0-109 32.70422535-16.35211268 32.70422535-16.35211268 46.76953125-23.02734375 4.9264922-2.34191406 9.83645677-4.71657935 14.7421875-7.1015625.74139725-.36032822 1.48279449-.72065643 2.24665833-1.09190369 2.97649393-1.44705201 5.95277039-2.89453786 8.92756652-4.34507751 2.07277027-1.01066026 4.14647605-2.01937975 6.2203064-3.02786255.61264206-.29955093 1.22528412-.59910187 1.85649109-.9077301 4.03019247-1.95756949 8.11460517-3.74567971 12.23725891-5.4985199 3.37135372-1.54724758 6.71527385-3.15129308 10.0625-4.75.92159912-.43739502 1.84319824-.87479004 2.79272461-1.32543945 4.19476576-1.99884812 8.37054264-4.01745436 12.48852539-6.1706543.63671631-.3309668 1.27343262-.66193359 1.92944336-1.00292969 1.67620084-.8791535 3.34440048-1.77351483 5.01196289-2.66894531 4.07598475-1.62452917 7.01360523-.02814543 11.0234375 1.37109375z"/><path transform="translate(494 564)" fill="#ef7f52" d="m0 0 1 2h3v83c-.33 0-.66 0-1 0 0-27.06 0-54.12 0-82-1.32.33-2.64.66-4 1z"/><path transform="translate(493 349)" fill="#b5b94c" d="m0 0c-2.57297782 1.5617377-5.15591462 3.09906742-7.75 4.625-.72960937.44601562-1.45921875.89203125-2.2109375 1.3515625-.70898438.4125-1.41796875.825-2.1484375 1.25-.64936523.38752441-1.29873047.77504883-1.96777344 1.17431641-1.92285156.59912109-1.92285156.59912109-4.16601562-.29003907-.57975586-.36657714-1.15951172-.73315429-1.75683594-1.11083984 2.57637588-1.36907416 5.15968104-2.72028455 7.75-4.0625.72960937-.38994141 1.45921875-.77988281 2.2109375-1.18164062.70898438-.36416016 1.41796875-.72832032 2.1484375-1.10351563.64936523-.34039307 1.29873047-.68078613 1.96777344-1.03149414 2.34276174-.75643005 3.62741729-.4090678 5.92285156.37915039z"/><path transform="translate(418 588)" fill="#fdf0ee" d="m0 0c.99.33 1.98.66 3 1-.33.66-.66 1.32-1 2-.15706331 2.84208026-.2584957 5.66337307-.31640625 8.5078125-.0207811.84061981-.04156219 1.68123962-.06297302 2.54733276-.06547512 2.68986709-.12437093 5.37983317-.18312073 8.06985474-.04318716 1.82162489-.08680152 3.64323971-.13085938 5.46484375-.1071743 4.46995019-.20844747 8.94000011-.30664062 13.41015625-.33 0-.66 0-1 0 0-13.53 0-27.06 0-41z"/><path transform="translate(316 694)" fill="#8d73b7" d="m0 0c-3.34389424 2.22926283-5.5595141 2.62875222-9.5 3.25-1.71703125.28617188-1.71703125.28617188-3.46875.578125-3.03125.171875-3.03125.171875-6.03125-1.828125 2.41474617-.53160457 4.83108107-1.05054766 7.25-1.5625.68191406-.15146484 1.36382812-.30292969 2.06640625-.45898438 3.50128413-.73085057 6.28657548-1.30055108 9.68359375.02148438z"/><path transform="translate(795 779)" fill="#9e8ac0" d="m0 0h14v2c1.98-.33 3.96-.66 6-1v2l2 1c-2.54186606-.31094086-5.08348598-.62370536-7.625-.9375-.71285156-.08701172-1.42570313-.17402344-2.16015625-.26367188-4.09076336-.50665417-8.1532701-1.08773242-12.21484375-1.79882812 0-.33 0-.66 0-1z"/><path transform="translate(410 678)" fill="#a593c4" d="m0 0c-6.56916161 3.70645357-14.64446401 3.13621363-22 3 0-.33 0-.66 0-1 2.91516484-.53084792 5.83160557-1.04999055 8.75-1.5625.825-.15146484 1.65-.30292969 2.5-.45898438.79921875-.13857421 1.5984375-.27714843 2.421875-.41992187.7331543-.13092041 1.46630859-.26184082 2.22167969-.39672852 2.26877818-.17433935 3.9442311.1693867 6.10644531.83813477z"/><path transform="translate(451 671)" fill="#a38dc5" d="m0 0c-3.09419048 1.77736058-5.5795259 2.31378764-9.125 2.5625-3.57298773.21799065-3.57298773.21799065-6.875 1.4375-2.00800456-.28112064-4.01014051-.61067967-6-1 0-.33 0-.66 0-1 2.91516484-.53084792 5.83160557-1.04999055 8.75-1.5625.825-.15146484 1.65-.30292969 2.5-.45898438.79921875-.13857421 1.5984375-.27714843 2.421875-.41992187.7331543-.13092041 1.46630859-.26184082 2.22167969-.39672852 2.26877818-.17433935 3.9442311.1693867 6.10644531.83813477z"/><path transform="translate(494 564)" fill="#ec7646" d="m0 0 1 2h3v18c-.33 0-.66 0-1 0 0-5.61 0-11.22 0-17-1.32.33-2.64.66-4 1z"/><path transform="translate(404.375 504.875)" fill="#f08154" d="m0 0c.53625.37125 1.0725.7425 1.625 1.125-3.31371 2.20914-4.3446021 2.22481553-8.1875 2.125-.90105469-.01804687-1.80210937-.03609375-2.73046875-.0546875-.68707031-.02320313-1.37414062-.04640625-2.08203125-.0703125 7.06779661-4.71186441 7.06779661-4.71186441 11.375-3.125zm1.625.125c3 1 3 1 3 1z"/><path transform="translate(378 683)" fill="#8f79b8" d="m0 0c-.33.66-.66 1.32-1 2-2.875.75-2.875.75-6 1-.99-.66-1.98-1.32-3-2 3.21451269-1.60725635 6.43612536-1.05748185 10-1z"/></svg>
